<svg xmlns="http://www.w3.org/2000/svg" xmlns:xlink="http://www.w3.org/1999/xlink" width="500" zoomAndPan="magnify" viewBox="0 0 375 374.999991" height="500" preserveAspectRatio="xMidYMid meet" version="1.0"><defs><g/><clipPath id="722b28bdcc"><path d="M 47.496094 128.390625 L 240 128.390625 L 240 246.890625 L 47.496094 246.890625 Z M 47.496094 128.390625 " clip-rule="nonzero"/></clipPath><clipPath id="b9624f7d53"><path d="M 55 132 L 308.238281 132 L 308.238281 242 L 55 242 Z M 55 132 " clip-rule="nonzero"/></clipPath></defs><rect x="-37.5" width="450" fill="#ffffff" y="-37.499999" height="449.999989" fill-opacity="1"/><rect x="-37.5" width="450" fill="#000000" y="-37.499999" height="449.999989" fill-opacity="1"/><path fill="#ffffff" d="M 301.765625 161.929688 C 301.765625 161.929688 300.1875 166.574219 304.128906 173.496094 C 304.128906 173.496094 304.917969 174.726562 299.308594 172.269531 C 293.703125 169.816406 281.78125 166.222656 221.050781 171.128906 C 221.050781 171.132812 270.390625 162.191406 301.765625 161.929688 Z M 301.765625 161.929688 " fill-opacity="1" fill-rule="nonzero"/><path fill="#dbad07" d="M 263.730469 161.929688 C 263.730469 161.929688 225.214844 169.160156 180.847656 169.945312 C 136.480469 170.734375 127.894531 174.808594 122.546875 177.089844 L 92.046875 177.878906 C 92.046875 177.878906 111.953125 165.101562 168.6875 164.953125 C 219.125 164.820312 249.535156 162.585938 263.730469 161.929688 Z M 263.730469 161.929688 " fill-opacity="1" fill-rule="nonzero"/><path fill="#dbad07" d="M 296.203125 158.773438 C 296.203125 158.773438 279.902344 162.453125 245.589844 152.332031 C 245.589844 152.332031 204.445312 137.476562 175.132812 163.242188 C 175.132812 163.242188 164.679688 162.980469 158.109375 163.242188 C 158.109375 163.242188 194.695312 136.519531 234.484375 145.101562 C 260.488281 150.710938 268.367188 157.675781 296.203125 158.773438 Z M 296.203125 158.773438 " fill-opacity="1" fill-rule="nonzero"/><g clip-path="url(#722b28bdcc)"><path fill="#dbad07" d="M 195.582031 128.40625 C 210.902344 128.40625 225.675781 129.351562 239.578125 131.105469 C 227.339844 129.773438 214.472656 129.066406 201.203125 129.066406 C 119.273438 129.066406 52.855469 156.078125 52.855469 189.402344 C 52.855469 215.960938 95.042969 238.511719 153.644531 246.574219 C 92.136719 239.21875 47.238281 216.097656 47.238281 188.710938 C 47.234375 155.40625 113.652344 128.40625 195.582031 128.40625 Z M 195.582031 128.40625 " fill-opacity="1" fill-rule="nonzero"/></g><g clip-path="url(#b9624f7d53)"><path fill="#ffffff" d="M 203.851562 132.285156 C 244.691406 132.285156 281.671875 138.664062 308.5 148.984375 C 282.996094 141.25 250.601562 136.625 215.339844 136.625 C 133.128906 136.625 66.480469 161.785156 66.480469 192.820312 C 66.480469 213.953125 97.375 232.359375 143.042969 241.957031 C 91.4375 232.976562 55.503906 212.929688 55.503906 189.632812 C 55.503906 157.960938 121.925781 132.285156 203.851562 132.285156 Z M 203.851562 132.285156 " fill-opacity="1" fill-rule="nonzero"/></g><g fill="#ffffff" fill-opacity="1"><g transform="translate(84.742097, 201.108767)"><g><path d="M 14.09375 -3.71875 L 6.234375 -3.71875 L 4.3125 0 L -1.046875 0 L 10.296875 -21.0625 L 16.234375 -21.0625 L 20.125 0 L 14.703125 0 Z M 13.5 -7.625 L 12.265625 -15.421875 L 8.25 -7.625 Z M 13.5 -7.625 "/></g></g></g><g fill="#ffffff" fill-opacity="1"><g transform="translate(105.532069, 201.108767)"><g><path d="M 11.9375 -21.0625 C 13.875 -21.0625 15.546875 -20.710938 16.953125 -20.015625 C 18.367188 -19.328125 19.453125 -18.359375 20.203125 -17.109375 C 20.953125 -15.859375 21.328125 -14.394531 21.328125 -12.71875 C 21.328125 -12.132812 21.257812 -11.40625 21.125 -10.53125 C 20.757812 -8.46875 19.984375 -6.632812 18.796875 -5.03125 C 17.609375 -3.4375 16.097656 -2.195312 14.265625 -1.3125 C 12.429688 -0.4375 10.414062 0 8.21875 0 L 0.328125 0 L 4.046875 -21.0625 Z M 8.671875 -4.375 C 10.609375 -4.375 12.21875 -4.914062 13.5 -6 C 14.78125 -7.082031 15.582031 -8.59375 15.90625 -10.53125 C 16 -11.132812 16.046875 -11.632812 16.046875 -12.03125 C 16.046875 -13.507812 15.59375 -14.65625 14.6875 -15.46875 C 13.789062 -16.28125 12.515625 -16.6875 10.859375 -16.6875 L 8.40625 -16.6875 L 6.234375 -4.375 Z M 8.671875 -4.375 "/></g></g></g><g fill="#ffffff" fill-opacity="1"><g transform="translate(126.022046, 201.108767)"><g><path d="M 8.453125 -17.015625 L 7.703125 -12.625 L 14.578125 -12.625 L 13.890625 -8.765625 L 7.015625 -8.765625 L 6.1875 -4.046875 L 13.953125 -4.046875 L 13.234375 0 L 0.328125 0 L 4.046875 -21.0625 L 16.953125 -21.0625 L 16.234375 -17.015625 Z M 8.453125 -17.015625 "/></g></g></g><g fill="#ffffff" fill-opacity="1"><g transform="translate(140.932034, 201.108767)"><g/></g></g><g fill="#ffffff" fill-opacity="1"><g transform="translate(146.542025, 201.108767)"><g><path d="M 18.90625 -14.28125 C 18.695312 -13.0625 18.222656 -11.945312 17.484375 -10.9375 C 16.742188 -9.925781 15.738281 -9.109375 14.46875 -8.484375 C 13.195312 -7.867188 11.703125 -7.5625 9.984375 -7.5625 L 6.8125 -7.5625 L 5.453125 0 L 0.328125 0 L 4.046875 -21.0625 L 12.359375 -21.0625 C 14.554688 -21.0625 16.210938 -20.578125 17.328125 -19.609375 C 18.453125 -18.640625 19.015625 -17.320312 19.015625 -15.65625 C 19.015625 -15.15625 18.976562 -14.695312 18.90625 -14.28125 Z M 10.296875 -11.578125 C 12.210938 -11.578125 13.34375 -12.476562 13.6875 -14.28125 C 13.71875 -14.601562 13.734375 -14.832031 13.734375 -14.96875 C 13.734375 -15.613281 13.53125 -16.109375 13.125 -16.453125 C 12.71875 -16.804688 12.09375 -16.984375 11.25 -16.984375 L 8.453125 -16.984375 L 7.53125 -11.578125 Z M 10.296875 -11.578125 "/></g></g></g><g fill="#ffffff" fill-opacity="1"><g transform="translate(163.942005, 201.108767)"><g><path d="M 14.09375 -3.71875 L 6.234375 -3.71875 L 4.3125 0 L -1.046875 0 L 10.296875 -21.0625 L 16.234375 -21.0625 L 20.125 0 L 14.703125 0 Z M 13.5 -7.625 L 12.265625 -15.421875 L 8.25 -7.625 Z M 13.5 -7.625 "/></g></g></g><g fill="#ffffff" fill-opacity="1"><g transform="translate(184.731981, 201.108767)"><g><path d="M 12.65625 -21.0625 C 14.84375 -21.0625 16.503906 -20.566406 17.640625 -19.578125 C 18.773438 -18.585938 19.34375 -17.300781 19.34375 -15.71875 C 19.34375 -15.257812 19.304688 -14.832031 19.234375 -14.4375 C 18.992188 -13.03125 18.382812 -11.773438 17.40625 -10.671875 C 16.425781 -9.578125 15.113281 -8.800781 13.46875 -8.34375 L 16.859375 0 L 11.0625 0 L 8.09375 -7.953125 L 6.875 -7.953125 L 5.453125 0 L 0.328125 0 L 4.046875 -21.0625 Z M 13.984375 -14.21875 C 14.023438 -14.539062 14.046875 -14.75 14.046875 -14.84375 C 14.046875 -15.488281 13.835938 -15.984375 13.421875 -16.328125 C 13.015625 -16.679688 12.410156 -16.859375 11.609375 -16.859375 L 8.4375 -16.859375 L 7.5 -11.578125 L 10.6875 -11.578125 C 11.625 -11.578125 12.363281 -11.804688 12.90625 -12.265625 C 13.457031 -12.722656 13.816406 -13.375 13.984375 -14.21875 Z M 13.984375 -14.21875 "/></g></g></g><g fill="#ffffff" fill-opacity="1"><g transform="translate(202.971963, 201.108767)"><g><path d="M 8.453125 -17.015625 L 7.703125 -12.625 L 14.578125 -12.625 L 13.890625 -8.765625 L 7.015625 -8.765625 L 6.1875 -4.046875 L 13.953125 -4.046875 L 13.234375 0 L 0.328125 0 L 4.046875 -21.0625 L 16.953125 -21.0625 L 16.234375 -17.015625 Z M 8.453125 -17.015625 "/></g></g></g><g fill="#ffffff" fill-opacity="1"><g transform="translate(217.881954, 201.108767)"><g><path d="M 15.484375 -12.65625 L 14.703125 -8.40625 L 1.5 -8.40625 L 2.28125 -12.65625 Z M 15.484375 -12.65625 "/></g></g></g><g fill="#ffffff" fill-opacity="1"><g transform="translate(233.961944, 201.108767)"><g><path d="M 19.40625 -15.59375 C 19.1875 -14.351562 18.675781 -13.320312 17.875 -12.5 C 17.082031 -11.6875 16.125 -11.117188 15 -10.796875 C 16 -10.578125 16.785156 -10.085938 17.359375 -9.328125 C 17.941406 -8.566406 18.234375 -7.675781 18.234375 -6.65625 C 18.234375 -6.34375 18.207031 -6.035156 18.15625 -5.734375 C 17.851562 -3.972656 16.988281 -2.578125 15.5625 -1.546875 C 14.144531 -0.515625 12.335938 0 10.140625 0 L 0.328125 0 L 4.046875 -21.0625 L 13.53125 -21.0625 C 15.425781 -21.0625 16.894531 -20.671875 17.9375 -19.890625 C 18.976562 -19.109375 19.5 -18.03125 19.5 -16.65625 C 19.5 -16.3125 19.46875 -15.957031 19.40625 -15.59375 Z M 11.015625 -12.515625 C 11.867188 -12.515625 12.554688 -12.703125 13.078125 -13.078125 C 13.597656 -13.460938 13.921875 -14.015625 14.046875 -14.734375 C 14.054688 -14.847656 14.0625 -15.003906 14.0625 -15.203125 C 14.0625 -15.785156 13.875 -16.234375 13.5 -16.546875 C 13.125 -16.859375 12.5625 -17.015625 11.8125 -17.015625 L 8.453125 -17.015625 L 7.6875 -12.515625 Z M 13.046875 -6.421875 C 13.085938 -6.660156 13.109375 -6.835938 13.109375 -6.953125 C 13.109375 -7.535156 12.894531 -7.988281 12.46875 -8.3125 C 12.050781 -8.644531 11.472656 -8.8125 10.734375 -8.8125 L 7.015625 -8.8125 L 6.1875 -4.078125 L 9.953125 -4.078125 C 10.835938 -4.078125 11.539062 -4.273438 12.0625 -4.671875 C 12.582031 -5.078125 12.910156 -5.660156 13.046875 -6.421875 Z M 13.046875 -6.421875 "/></g></g></g><g fill="#ffffff" fill-opacity="1"><g transform="translate(252.411924, 201.108767)"><g><path d="M 12.65625 -21.0625 C 14.84375 -21.0625 16.503906 -20.566406 17.640625 -19.578125 C 18.773438 -18.585938 19.34375 -17.300781 19.34375 -15.71875 C 19.34375 -15.257812 19.304688 -14.832031 19.234375 -14.4375 C 18.992188 -13.03125 18.382812 -11.773438 17.40625 -10.671875 C 16.425781 -9.578125 15.113281 -8.800781 13.46875 -8.34375 L 16.859375 0 L 11.0625 0 L 8.09375 -7.953125 L 6.875 -7.953125 L 5.453125 0 L 0.328125 0 L 4.046875 -21.0625 Z M 13.984375 -14.21875 C 14.023438 -14.539062 14.046875 -14.75 14.046875 -14.84375 C 14.046875 -15.488281 13.835938 -15.984375 13.421875 -16.328125 C 13.015625 -16.679688 12.410156 -16.859375 11.609375 -16.859375 L 8.4375 -16.859375 L 7.5 -11.578125 L 10.6875 -11.578125 C 11.625 -11.578125 12.363281 -11.804688 12.90625 -12.265625 C 13.457031 -12.722656 13.816406 -13.375 13.984375 -14.21875 Z M 13.984375 -14.21875 "/></g></g></g><g fill="#ffffff" fill-opacity="1"><g transform="translate(270.651906, 201.108767)"><g><path d="M 9.1875 -21.0625 L 5.453125 0 L 0.328125 0 L 4.046875 -21.0625 Z M 9.1875 -21.0625 "/></g></g></g><g fill="#ffffff" fill-opacity="1"><g transform="translate(278.181889, 201.108767)"><g><path d="M 8.703125 0.203125 C 6.421875 0.203125 4.5625 -0.289062 3.125 -1.28125 C 1.695312 -2.269531 0.984375 -3.671875 0.984375 -5.484375 C 0.984375 -5.671875 1.003906 -5.941406 1.046875 -6.296875 L 6.390625 -6.296875 C 6.328125 -5.535156 6.503906 -4.9375 6.921875 -4.5 C 7.347656 -4.0625 7.988281 -3.84375 8.84375 -3.84375 C 9.625 -3.84375 10.238281 -4.007812 10.6875 -4.34375 C 11.144531 -4.6875 11.375 -5.171875 11.375 -5.796875 C 11.375 -6.429688 11.085938 -6.945312 10.515625 -7.34375 C 9.941406 -7.75 9.054688 -8.203125 7.859375 -8.703125 C 6.703125 -9.179688 5.757812 -9.632812 5.03125 -10.0625 C 4.300781 -10.488281 3.664062 -11.070312 3.125 -11.8125 C 2.582031 -12.5625 2.3125 -13.492188 2.3125 -14.609375 C 2.289062 -15.992188 2.628906 -17.191406 3.328125 -18.203125 C 4.023438 -19.222656 4.992188 -20.003906 6.234375 -20.546875 C 7.472656 -21.085938 8.894531 -21.359375 10.5 -21.359375 C 11.9375 -21.359375 13.210938 -21.132812 14.328125 -20.6875 C 15.453125 -20.238281 16.320312 -19.585938 16.9375 -18.734375 C 17.5625 -17.878906 17.875 -16.875 17.875 -15.71875 C 17.875 -15.414062 17.863281 -15.195312 17.84375 -15.0625 L 12.390625 -15.0625 C 12.410156 -15.144531 12.421875 -15.265625 12.421875 -15.421875 C 12.421875 -15.984375 12.222656 -16.4375 11.828125 -16.78125 C 11.441406 -17.132812 10.910156 -17.3125 10.234375 -17.3125 C 9.515625 -17.3125 8.925781 -17.132812 8.46875 -16.78125 C 8.019531 -16.4375 7.796875 -15.960938 7.796875 -15.359375 C 7.796875 -14.753906 8.078125 -14.25 8.640625 -13.84375 C 9.203125 -13.4375 10.070312 -12.960938 11.25 -12.421875 C 12.425781 -11.878906 13.390625 -11.378906 14.140625 -10.921875 C 14.890625 -10.460938 15.535156 -9.847656 16.078125 -9.078125 C 16.617188 -8.304688 16.890625 -7.359375 16.890625 -6.234375 C 16.890625 -4.992188 16.554688 -3.882812 15.890625 -2.90625 C 15.234375 -1.925781 14.285156 -1.160156 13.046875 -0.609375 C 11.804688 -0.0664062 10.359375 0.203125 8.703125 0.203125 Z M 8.703125 0.203125 "/></g></g></g><g fill="#ffffff" fill-opacity="1"><g transform="translate(295.521862, 201.108767)"><g><path d="M 8.453125 -17.015625 L 7.703125 -12.625 L 14.578125 -12.625 L 13.890625 -8.765625 L 7.015625 -8.765625 L 6.1875 -4.046875 L 13.953125 -4.046875 L 13.234375 0 L 0.328125 0 L 4.046875 -21.0625 L 16.953125 -21.0625 L 16.234375 -17.015625 Z M 8.453125 -17.015625 "/></g></g></g><g fill="#ffffff" fill-opacity="1"><g transform="translate(103.045596, 220.11091)"><g><path d="M 5.0625 -8.421875 C 5.9375 -8.421875 6.597656 -8.222656 7.046875 -7.828125 C 7.503906 -7.429688 7.734375 -6.914062 7.734375 -6.28125 C 7.734375 -6.101562 7.71875 -5.929688 7.6875 -5.765625 C 7.59375 -5.210938 7.347656 -4.710938 6.953125 -4.265625 C 6.566406 -3.828125 6.046875 -3.519531 5.390625 -3.34375 L 6.75 0 L 4.421875 0 L 3.234375 -3.1875 L 2.75 -3.1875 L 2.1875 0 L 0.125 0 L 1.625 -8.421875 Z M 5.59375 -5.6875 C 5.601562 -5.8125 5.609375 -5.894531 5.609375 -5.9375 C 5.609375 -6.195312 5.523438 -6.394531 5.359375 -6.53125 C 5.203125 -6.675781 4.960938 -6.75 4.640625 -6.75 L 3.375 -6.75 L 3 -4.625 L 4.265625 -4.625 C 4.648438 -4.625 4.953125 -4.71875 5.171875 -4.90625 C 5.390625 -5.09375 5.53125 -5.351562 5.59375 -5.6875 Z M 5.59375 -5.6875 "/></g></g></g><g fill="#ffffff" fill-opacity="1"><g transform="translate(112.909612, 220.11091)"><g><path d="M 3.390625 -6.796875 L 3.078125 -5.046875 L 5.828125 -5.046875 L 5.5625 -3.5 L 2.8125 -3.5 L 2.46875 -1.625 L 5.578125 -1.625 L 5.296875 0 L 0.125 0 L 1.625 -8.421875 L 6.78125 -8.421875 L 6.484375 -6.796875 Z M 5.859375 -10.109375 L 2.734375 -8.90625 L 2.984375 -10.3125 L 6.125 -11.703125 Z M 5.859375 -10.109375 "/></g></g></g><g fill="#ffffff" fill-opacity="1"><g transform="translate(121.441628, 220.11091)"><g><path d="M 7.5625 -5.71875 C 7.476562 -5.226562 7.285156 -4.78125 6.984375 -4.375 C 6.691406 -3.96875 6.289062 -3.640625 5.78125 -3.390625 C 5.28125 -3.148438 4.6875 -3.03125 4 -3.03125 L 2.71875 -3.03125 L 2.1875 0 L 0.125 0 L 1.625 -8.421875 L 4.9375 -8.421875 C 5.820312 -8.421875 6.488281 -8.226562 6.9375 -7.84375 C 7.382812 -7.457031 7.609375 -6.929688 7.609375 -6.265625 C 7.609375 -6.066406 7.59375 -5.882812 7.5625 -5.71875 Z M 4.109375 -4.625 C 4.878906 -4.625 5.332031 -4.988281 5.46875 -5.71875 C 5.488281 -5.84375 5.5 -5.929688 5.5 -5.984375 C 5.5 -6.242188 5.414062 -6.441406 5.25 -6.578125 C 5.082031 -6.722656 4.832031 -6.796875 4.5 -6.796875 L 3.390625 -6.796875 L 3.015625 -4.625 Z M 4.109375 -4.625 "/></g></g></g><g fill="#ffffff" fill-opacity="1"><g transform="translate(130.969645, 220.11091)"><g><path d="M 5.640625 -1.484375 L 2.5 -1.484375 L 1.734375 0 L -0.421875 0 L 4.109375 -8.421875 L 6.484375 -8.421875 L 8.046875 0 L 5.875 0 Z M 5.40625 -3.046875 L 4.90625 -6.171875 L 3.296875 -3.046875 Z M 5.40625 -3.046875 "/></g></g></g><g fill="#ffffff" fill-opacity="1"><g transform="translate(141.853662, 220.11091)"><g><path d="M 5.0625 -8.421875 C 5.9375 -8.421875 6.597656 -8.222656 7.046875 -7.828125 C 7.503906 -7.429688 7.734375 -6.914062 7.734375 -6.28125 C 7.734375 -6.101562 7.71875 -5.929688 7.6875 -5.765625 C 7.59375 -5.210938 7.347656 -4.710938 6.953125 -4.265625 C 6.566406 -3.828125 6.046875 -3.519531 5.390625 -3.34375 L 6.75 0 L 4.421875 0 L 3.234375 -3.1875 L 2.75 -3.1875 L 2.1875 0 L 0.125 0 L 1.625 -8.421875 Z M 5.59375 -5.6875 C 5.601562 -5.8125 5.609375 -5.894531 5.609375 -5.9375 C 5.609375 -6.195312 5.523438 -6.394531 5.359375 -6.53125 C 5.203125 -6.675781 4.960938 -6.75 4.640625 -6.75 L 3.375 -6.75 L 3 -4.625 L 4.265625 -4.625 C 4.648438 -4.625 4.953125 -4.71875 5.171875 -4.90625 C 5.390625 -5.09375 5.53125 -5.351562 5.59375 -5.6875 Z M 5.59375 -5.6875 "/></g></g></g><g fill="#ffffff" fill-opacity="1"><g transform="translate(151.717676, 220.11091)"><g><path d="M 5.640625 -1.484375 L 2.5 -1.484375 L 1.734375 0 L -0.421875 0 L 4.109375 -8.421875 L 6.484375 -8.421875 L 8.046875 0 L 5.875 0 Z M 5.40625 -3.046875 L 4.90625 -6.171875 L 3.296875 -3.046875 Z M 5.40625 -3.046875 "/></g></g></g><g fill="#ffffff" fill-opacity="1"><g transform="translate(162.601693, 220.11091)"><g><path d="M 7.6875 -8.421875 L 7.40625 -6.796875 L 5.15625 -6.796875 L 3.953125 0 L 1.90625 0 L 3.109375 -6.796875 L 0.875 -6.796875 L 1.15625 -8.421875 Z M 7.6875 -8.421875 "/></g></g></g><g fill="#ffffff" fill-opacity="1"><g transform="translate(171.733712, 220.11091)"><g><path d="M 3.671875 -8.421875 L 2.1875 0 L 0.125 0 L 1.625 -8.421875 Z M 3.671875 -8.421875 "/></g></g></g><g fill="#ffffff" fill-opacity="1"><g transform="translate(177.313724, 220.11091)"><g><path d="M 4.140625 0.078125 C 3.429688 0.078125 2.804688 -0.0664062 2.265625 -0.359375 C 1.722656 -0.648438 1.300781 -1.0625 1 -1.59375 C 0.707031 -2.132812 0.5625 -2.753906 0.5625 -3.453125 C 0.5625 -4.441406 0.773438 -5.320312 1.203125 -6.09375 C 1.628906 -6.863281 2.21875 -7.460938 2.96875 -7.890625 C 3.726562 -8.328125 4.585938 -8.546875 5.546875 -8.546875 C 6.265625 -8.546875 6.894531 -8.398438 7.4375 -8.109375 C 7.976562 -7.816406 8.394531 -7.40625 8.6875 -6.875 C 8.988281 -6.34375 9.140625 -5.734375 9.140625 -5.046875 C 9.140625 -4.054688 8.925781 -3.171875 8.5 -2.390625 C 8.082031 -1.609375 7.492188 -1 6.734375 -0.5625 C 5.972656 -0.132812 5.109375 0.078125 4.140625 0.078125 Z M 4.453125 -1.8125 C 4.984375 -1.8125 5.445312 -1.945312 5.84375 -2.21875 C 6.238281 -2.488281 6.546875 -2.851562 6.765625 -3.3125 C 6.992188 -3.78125 7.109375 -4.28125 7.109375 -4.8125 C 7.109375 -5.382812 6.945312 -5.832031 6.625 -6.15625 C 6.300781 -6.488281 5.851562 -6.65625 5.28125 -6.65625 C 4.75 -6.65625 4.28125 -6.519531 3.875 -6.25 C 3.476562 -5.976562 3.164062 -5.613281 2.9375 -5.15625 C 2.71875 -4.707031 2.609375 -4.210938 2.609375 -3.671875 C 2.609375 -3.097656 2.769531 -2.644531 3.09375 -2.3125 C 3.414062 -1.976562 3.867188 -1.8125 4.453125 -1.8125 Z M 4.453125 -1.8125 "/></g></g></g><g fill="#ffffff" fill-opacity="1"><g transform="translate(188.785739, 220.11091)"><g><path d="M 7.671875 0 L 5.609375 0 L 3.109375 -5.203125 L 2.1875 0 L 0.125 0 L 1.625 -8.421875 L 3.671875 -8.421875 L 6.1875 -3.203125 L 7.109375 -8.421875 L 9.15625 -8.421875 Z M 7.671875 0 "/></g></g></g><g fill="#ffffff" fill-opacity="1"><g transform="translate(199.849755, 220.11091)"><g><path d="M 3.484375 0.078125 C 2.566406 0.078125 1.820312 -0.117188 1.25 -0.515625 C 0.675781 -0.910156 0.390625 -1.472656 0.390625 -2.203125 C 0.390625 -2.265625 0.398438 -2.367188 0.421875 -2.515625 L 2.5625 -2.515625 C 2.53125 -2.210938 2.597656 -1.972656 2.765625 -1.796875 C 2.941406 -1.617188 3.203125 -1.53125 3.546875 -1.53125 C 3.859375 -1.53125 4.101562 -1.597656 4.28125 -1.734375 C 4.457031 -1.867188 4.546875 -2.0625 4.546875 -2.3125 C 4.546875 -2.570312 4.429688 -2.78125 4.203125 -2.9375 C 3.972656 -3.101562 3.617188 -3.285156 3.140625 -3.484375 C 2.679688 -3.671875 2.304688 -3.847656 2.015625 -4.015625 C 1.722656 -4.191406 1.46875 -4.425781 1.25 -4.71875 C 1.03125 -5.019531 0.921875 -5.394531 0.921875 -5.84375 C 0.910156 -6.394531 1.046875 -6.875 1.328125 -7.28125 C 1.609375 -7.6875 1.992188 -8 2.484375 -8.21875 C 2.984375 -8.4375 3.554688 -8.546875 4.203125 -8.546875 C 4.773438 -8.546875 5.285156 -8.453125 5.734375 -8.265625 C 6.179688 -8.085938 6.53125 -7.828125 6.78125 -7.484375 C 7.03125 -7.148438 7.15625 -6.75 7.15625 -6.28125 C 7.15625 -6.164062 7.148438 -6.082031 7.140625 -6.03125 L 4.953125 -6.03125 C 4.960938 -6.0625 4.96875 -6.109375 4.96875 -6.171875 C 4.96875 -6.390625 4.890625 -6.566406 4.734375 -6.703125 C 4.578125 -6.847656 4.363281 -6.921875 4.09375 -6.921875 C 3.800781 -6.921875 3.566406 -6.847656 3.390625 -6.703125 C 3.210938 -6.566406 3.125 -6.378906 3.125 -6.140625 C 3.125 -5.898438 3.234375 -5.695312 3.453125 -5.53125 C 3.679688 -5.375 4.03125 -5.1875 4.5 -4.96875 C 4.96875 -4.75 5.351562 -4.546875 5.65625 -4.359375 C 5.957031 -4.179688 6.210938 -3.9375 6.421875 -3.625 C 6.640625 -3.320312 6.75 -2.945312 6.75 -2.5 C 6.75 -2 6.617188 -1.550781 6.359375 -1.15625 C 6.097656 -0.769531 5.71875 -0.46875 5.21875 -0.25 C 4.71875 -0.03125 4.140625 0.078125 3.484375 0.078125 Z M 3.484375 0.078125 "/></g></g></g><g fill="#ffffff" fill-opacity="1"><g transform="translate(209.353775, 220.11091)"><g/></g></g><g fill="#ffffff" fill-opacity="1"><g transform="translate(214.165786, 220.11091)"><g><path d="M 5.640625 -1.484375 L 2.5 -1.484375 L 1.734375 0 L -0.421875 0 L 4.109375 -8.421875 L 6.484375 -8.421875 L 8.046875 0 L 5.875 0 Z M 5.40625 -3.046875 L 4.90625 -6.171875 L 3.296875 -3.046875 Z M 7.046875 -10.3125 L 6.78125 -8.90625 L 4.125 -10.109375 L 4.390625 -11.703125 Z M 7.046875 -10.3125 "/></g></g></g><g fill="#ffffff" fill-opacity="1"><g transform="translate(225.049803, 220.11091)"><g/></g></g><g fill="#ffffff" fill-opacity="1"><g transform="translate(229.861815, 220.11091)"><g><path d="M 4.78125 -8.421875 C 5.550781 -8.421875 6.21875 -8.28125 6.78125 -8 C 7.34375 -7.726562 7.773438 -7.34375 8.078125 -6.84375 C 8.378906 -6.34375 8.53125 -5.757812 8.53125 -5.09375 C 8.53125 -4.851562 8.503906 -4.5625 8.453125 -4.21875 C 8.304688 -3.382812 7.992188 -2.648438 7.515625 -2.015625 C 7.035156 -1.378906 6.429688 -0.882812 5.703125 -0.53125 C 4.972656 -0.175781 4.164062 0 3.28125 0 L 0.125 0 L 1.625 -8.421875 Z M 3.46875 -1.75 C 4.238281 -1.75 4.878906 -1.960938 5.390625 -2.390625 C 5.910156 -2.828125 6.234375 -3.4375 6.359375 -4.21875 C 6.398438 -4.457031 6.421875 -4.65625 6.421875 -4.8125 C 6.421875 -5.40625 6.238281 -5.863281 5.875 -6.1875 C 5.519531 -6.507812 5.007812 -6.671875 4.34375 -6.671875 L 3.359375 -6.671875 L 2.5 -1.75 Z M 3.46875 -1.75 "/></g></g></g><g fill="#ffffff" fill-opacity="1"><g transform="translate(240.625829, 220.11091)"><g><path d="M 4.140625 0.078125 C 3.429688 0.078125 2.804688 -0.0664062 2.265625 -0.359375 C 1.722656 -0.648438 1.300781 -1.0625 1 -1.59375 C 0.707031 -2.132812 0.5625 -2.753906 0.5625 -3.453125 C 0.5625 -4.441406 0.773438 -5.320312 1.203125 -6.09375 C 1.628906 -6.863281 2.21875 -7.460938 2.96875 -7.890625 C 3.726562 -8.328125 4.585938 -8.546875 5.546875 -8.546875 C 6.265625 -8.546875 6.894531 -8.398438 7.4375 -8.109375 C 7.976562 -7.816406 8.394531 -7.40625 8.6875 -6.875 C 8.988281 -6.34375 9.140625 -5.734375 9.140625 -5.046875 C 9.140625 -4.054688 8.925781 -3.171875 8.5 -2.390625 C 8.082031 -1.609375 7.492188 -1 6.734375 -0.5625 C 5.972656 -0.132812 5.109375 0.078125 4.140625 0.078125 Z M 4.453125 -1.8125 C 4.984375 -1.8125 5.445312 -1.945312 5.84375 -2.21875 C 6.238281 -2.488281 6.546875 -2.851562 6.765625 -3.3125 C 6.992188 -3.78125 7.109375 -4.28125 7.109375 -4.8125 C 7.109375 -5.382812 6.945312 -5.832031 6.625 -6.15625 C 6.300781 -6.488281 5.851562 -6.65625 5.28125 -6.65625 C 4.75 -6.65625 4.28125 -6.519531 3.875 -6.25 C 3.476562 -5.976562 3.164062 -5.613281 2.9375 -5.15625 C 2.71875 -4.707031 2.609375 -4.210938 2.609375 -3.671875 C 2.609375 -3.097656 2.769531 -2.644531 3.09375 -2.3125 C 3.414062 -1.976562 3.867188 -1.8125 4.453125 -1.8125 Z M 4.453125 -1.8125 "/></g></g></g><g fill="#ffffff" fill-opacity="1"><g transform="translate(252.097844, 220.11091)"><g><path d="M 11.15625 -8.421875 L 9.671875 0 L 7.625 0 L 8.515625 -5.046875 L 5.734375 0 L 4.078125 0 L 3.078125 -5.078125 L 2.1875 0 L 0.125 0 L 1.625 -8.421875 L 4.046875 -8.421875 L 5.390625 -2.59375 L 8.75 -8.421875 Z M 11.15625 -8.421875 "/></g></g></g><g fill="#ffffff" fill-opacity="1"><g transform="translate(265.153869, 220.11091)"><g><path d="M 3.671875 -8.421875 L 2.1875 0 L 0.125 0 L 1.625 -8.421875 Z M 3.671875 -8.421875 "/></g></g></g><g fill="#ffffff" fill-opacity="1"><g transform="translate(270.733882, 220.11091)"><g><path d="M 0.546875 -4.21875 C 0.679688 -5.050781 0.988281 -5.789062 1.46875 -6.4375 C 1.945312 -7.09375 2.535156 -7.601562 3.234375 -7.96875 C 3.941406 -8.332031 4.703125 -8.515625 5.515625 -8.515625 C 6.515625 -8.515625 7.320312 -8.25 7.9375 -7.71875 C 8.5625 -7.195312 8.914062 -6.476562 9 -5.5625 L 6.75 -5.5625 C 6.644531 -5.90625 6.453125 -6.164062 6.171875 -6.34375 C 5.898438 -6.53125 5.5625 -6.625 5.15625 -6.625 C 4.53125 -6.625 3.984375 -6.40625 3.515625 -5.96875 C 3.046875 -5.53125 2.75 -4.945312 2.625 -4.21875 C 2.582031 -4 2.5625 -3.804688 2.5625 -3.640625 C 2.5625 -3.078125 2.71875 -2.628906 3.03125 -2.296875 C 3.34375 -1.972656 3.769531 -1.8125 4.3125 -1.8125 C 4.707031 -1.8125 5.070312 -1.898438 5.40625 -2.078125 C 5.75 -2.265625 6.039062 -2.53125 6.28125 -2.875 L 8.53125 -2.875 C 8.132812 -1.96875 7.53125 -1.25 6.71875 -0.71875 C 5.914062 -0.195312 5.015625 0.0625 4.015625 0.0625 C 3.285156 0.0625 2.648438 -0.078125 2.109375 -0.359375 C 1.578125 -0.640625 1.164062 -1.035156 0.875 -1.546875 C 0.59375 -2.054688 0.453125 -2.65625 0.453125 -3.34375 C 0.453125 -3.644531 0.484375 -3.9375 0.546875 -4.21875 Z M 0.546875 -4.21875 "/></g></g></g><g fill="#ffffff" fill-opacity="1"><g transform="translate(281.917906, 220.11091)"><g><path d="M 3.671875 -8.421875 L 2.1875 0 L 0.125 0 L 1.625 -8.421875 Z M 3.671875 -8.421875 "/></g></g></g><g fill="#ffffff" fill-opacity="1"><g transform="translate(287.497919, 220.11091)"><g><path d="M 2.453125 -1.5625 L 5.140625 -1.5625 L 4.875 0 L 0.125 0 L 1.625 -8.421875 L 3.671875 -8.421875 Z M 2.453125 -1.5625 "/></g></g></g><g fill="#ffffff" fill-opacity="1"><g transform="translate(295.261922, 220.11091)"><g><path d="M 3.390625 -6.796875 L 3.078125 -5.046875 L 5.828125 -5.046875 L 5.5625 -3.5 L 2.8125 -3.5 L 2.46875 -1.625 L 5.578125 -1.625 L 5.296875 0 L 0.125 0 L 1.625 -8.421875 L 6.78125 -8.421875 L 6.484375 -6.796875 Z M 3.390625 -6.796875 "/></g></g></g></svg>