<svg width="500" height="180" viewBox="0 0 500 180" fill="none" xmlns="http://www.w3.org/2000/svg">
<g clip-path="url(#clip0_21_5)">
<rect width="500" height="180" fill="white"/>
<path d="M550 -18H-50V198H550V-18Z" fill="white"/>
<path d="M550 -18H-50V198H550V-18Z" fill="black"/>
<path d="M412.026 55.7188C412.026 55.7188 409.922 61.9115 415.177 71.1406C415.177 71.1406 416.229 72.7813 408.75 69.5052C401.276 66.2344 385.38 61.4427 304.406 67.9844C304.406 67.9896 370.193 56.0677 412.026 55.7188Z" fill="white"/>
<path d="M361.312 55.7188C361.312 55.7188 309.958 65.3594 250.802 66.4063C191.646 67.4583 180.198 72.8906 173.068 75.9323L132.401 76.9844C132.401 76.9844 158.943 59.9479 234.588 59.75C301.838 59.5729 342.385 56.5938 361.312 55.7188Z" fill="#DBAD07"/>
<path d="M404.609 51.5104C404.609 51.5104 382.875 56.4167 337.125 42.9219C337.125 42.9219 282.266 23.1146 243.182 57.4688C243.182 57.4688 229.245 57.1198 220.484 57.4688C220.484 57.4688 269.266 21.8386 322.318 33.2813C356.99 40.7604 367.495 50.0469 404.609 51.5104Z" fill="#DBAD07"/>
<mask id="mask0_21_5" style="mask-type:luminance" maskUnits="userSpaceOnUse" x="73" y="11" width="257" height="158">
<path d="M73 11H329.672V169H73V11Z" fill="white"/>
</mask>
<g mask="url(#mask0_21_5)">
<path d="M270.448 11.0209C290.875 11.0209 310.573 12.2813 329.109 14.6198C312.792 12.8438 295.635 11.9011 277.943 11.9011C168.703 11.9011 80.1458 47.9167 80.1458 92.349C80.1458 127.76 136.396 157.828 214.531 168.578C132.521 158.771 72.6563 127.943 72.6563 91.4271C72.651 47.0209 161.208 11.0209 270.448 11.0209Z" fill="#DBAD07"/>
</g>
<mask id="mask1_21_5" style="mask-type:luminance" maskUnits="userSpaceOnUse" x="83" y="15" width="338" height="148">
<path d="M83.0052 15.8125H420.656V162.479H83.0052V15.8125Z" fill="white"/>
</mask>
<g mask="url(#mask1_21_5)">
<path d="M281.474 16.1927C335.927 16.1927 385.234 24.698 421.005 38.4584C387 28.1459 343.807 21.9792 296.792 21.9792C187.177 21.9792 98.3125 55.5261 98.3125 96.9063C98.3125 125.083 139.505 149.625 200.396 162.422C131.589 150.448 83.6771 123.719 83.6771 92.6563C83.6771 50.4271 172.24 16.1927 281.474 16.1927Z" fill="white"/>
</g>
<path d="M141.453 102.999H130.974L128.411 107.958H121.266L136.391 79.8742H144.307L149.495 107.958H142.266L141.453 102.999ZM140.661 97.7909L139.016 87.395L133.661 97.7909H140.661Z" fill="white"/>
<path d="M166.298 79.8742C168.881 79.8742 171.11 80.343 172.985 81.27C174.871 82.1867 176.319 83.4784 177.319 85.145C178.319 86.8117 178.819 88.7648 178.819 90.9992C178.819 91.7805 178.725 92.7492 178.548 93.9159C178.058 96.6659 177.027 99.1138 175.444 101.249C173.86 103.374 171.845 105.03 169.402 106.208C166.954 107.374 164.267 107.958 161.34 107.958H150.819L155.777 79.8742H166.298ZM161.944 102.124C164.527 102.124 166.673 101.405 168.381 99.9575C170.09 98.5148 171.157 96.4992 171.59 93.9159C171.715 93.1138 171.777 92.4471 171.777 91.9159C171.777 89.9471 171.173 88.4159 169.965 87.3325C168.767 86.2492 167.069 85.7075 164.86 85.7075H161.59L158.694 102.124H161.944Z" fill="white"/>
<path d="M188.972 85.27L187.972 91.1242H197.139L196.222 96.27H187.055L185.951 102.562H196.305L195.347 107.958H178.139L183.097 79.8742H200.305L199.347 85.27H188.972Z" fill="white"/>
<path d="M230.27 88.9159C229.988 90.5409 229.358 92.0305 228.374 93.3742C227.384 94.7232 226.046 95.8117 224.353 96.645C222.655 97.468 220.665 97.8742 218.374 97.8742H214.145L212.332 107.958H205.499L210.457 79.8742H221.54C224.467 79.8742 226.676 80.52 228.165 81.8117C229.665 83.1034 230.415 84.8638 230.415 87.0825C230.415 87.7492 230.363 88.3638 230.27 88.9159ZM218.79 92.52C221.342 92.52 222.853 91.3221 223.311 88.9159C223.353 88.4888 223.374 88.1815 223.374 87.9992C223.374 87.1398 223.103 86.4784 222.561 86.02C222.02 85.5513 221.186 85.3117 220.061 85.3117H216.332L215.103 92.52H218.79Z" fill="white"/>
<path d="M247.053 102.999H236.574L234.011 107.958H226.865L241.99 79.8742H249.907L255.095 107.958H247.865L247.053 102.999ZM246.261 97.7909L244.615 87.395L239.261 97.7909H246.261Z" fill="white"/>
<path d="M272.856 79.8742C275.773 79.8742 277.986 80.5357 279.502 81.8534C281.012 83.1763 281.773 84.8898 281.773 86.9992C281.773 87.6138 281.721 88.1815 281.627 88.7075C281.304 90.5825 280.492 92.2596 279.19 93.7284C277.882 95.1867 276.132 96.2232 273.94 96.8325L278.46 107.958H270.731L266.773 97.3534H265.148L263.252 107.958H256.419L261.377 79.8742H272.856ZM274.627 88.9992C274.679 88.5721 274.71 88.2909 274.71 88.1659C274.71 87.3065 274.429 86.645 273.877 86.1867C273.335 85.718 272.528 85.4784 271.46 85.4784H267.231L265.981 92.52H270.231C271.481 92.52 272.466 92.218 273.19 91.6034C273.924 90.994 274.403 90.1242 274.627 88.9992Z" fill="white"/>
<path d="M291.572 85.27L290.572 91.1242H299.739L298.822 96.27H289.655L288.551 102.562H298.905L297.947 107.958H280.739L285.697 79.8742H302.905L301.947 85.27H291.572Z" fill="white"/>
<path d="M320.827 91.0825L319.785 96.7492H302.181L303.223 91.0825H320.827Z" fill="white"/>
<path d="M347.496 87.1659C347.204 88.8221 346.522 90.1971 345.454 91.2909C344.397 92.3742 343.121 93.1346 341.621 93.5617C342.954 93.8534 344.001 94.5096 344.767 95.52C345.543 96.5357 345.934 97.7232 345.934 99.0825C345.934 99.4992 345.897 99.9107 345.829 100.312C345.423 102.661 344.272 104.52 342.371 105.895C340.48 107.27 338.069 107.958 335.142 107.958H322.059L327.017 79.8742H339.663C342.189 79.8742 344.147 80.395 345.538 81.4367C346.923 82.4784 347.621 83.9159 347.621 85.7492C347.621 86.2075 347.579 86.6815 347.496 87.1659ZM336.309 91.27C337.444 91.27 338.361 91.02 339.059 90.52C339.751 90.0096 340.184 89.27 340.35 88.3117C340.361 88.1607 340.371 87.9523 340.371 87.6867C340.371 86.9107 340.121 86.3117 339.621 85.895C339.121 85.4784 338.371 85.27 337.371 85.27H332.892L331.871 91.27H336.309ZM339.017 99.395C339.069 99.0773 339.1 98.843 339.1 98.6867C339.1 97.9107 338.814 97.3065 338.246 96.8742C337.689 96.4315 336.918 96.2075 335.934 96.2075H330.975L329.871 102.52H334.892C336.069 102.52 337.007 102.26 337.704 101.728C338.397 101.187 338.835 100.411 339.017 99.395Z" fill="white"/>
<path d="M363.096 79.8742C366.013 79.8742 368.226 80.5357 369.742 81.8534C371.252 83.1763 372.013 84.8898 372.013 86.9992C372.013 87.6138 371.961 88.1815 371.867 88.7075C371.544 90.5825 370.731 92.2596 369.429 93.7284C368.122 95.1867 366.372 96.2232 364.179 96.8325L368.7 107.958H360.971L357.013 97.3534H355.388L353.492 107.958H346.659L351.617 79.8742H363.096ZM364.867 88.9992C364.919 88.5721 364.95 88.2909 364.95 88.1659C364.95 87.3065 364.669 86.645 364.117 86.1867C363.575 85.718 362.768 85.4784 361.7 85.4784H357.471L356.221 92.52H360.471C361.721 92.52 362.705 92.218 363.429 91.6034C364.164 90.994 364.643 90.1242 364.867 88.9992Z" fill="white"/>
<path d="M382.791 79.8742L377.812 107.958H370.979L375.937 79.8742H382.791Z" fill="white"/>
<path d="M392.185 108.228C389.144 108.228 386.664 107.572 384.748 106.249C382.841 104.931 381.894 103.062 381.894 100.645C381.894 100.395 381.92 100.036 381.977 99.5617H389.102C389.019 100.577 389.253 101.374 389.81 101.957C390.378 102.541 391.232 102.832 392.373 102.832C393.414 102.832 394.232 102.614 394.831 102.166C395.44 101.707 395.748 101.062 395.748 100.228C395.748 99.3846 395.362 98.6971 394.602 98.1658C393.836 97.6242 392.654 97.02 391.06 96.3533C389.519 95.7179 388.258 95.1138 387.289 94.5408C386.315 93.9731 385.466 93.1971 384.748 92.2075C384.024 91.2075 383.664 89.9679 383.664 88.4783C383.633 86.6346 384.086 85.0356 385.019 83.6867C385.946 82.3273 387.237 81.2856 388.894 80.5617C390.545 79.8429 392.44 79.4783 394.581 79.4783C396.498 79.4783 398.196 79.7804 399.685 80.3742C401.185 80.9731 402.341 81.8429 403.164 82.9783C403.998 84.119 404.414 85.4575 404.414 86.9992C404.414 87.4054 404.399 87.6971 404.373 87.8742H397.102C397.128 87.7648 397.144 87.6033 397.144 87.395C397.144 86.645 396.878 86.0408 396.352 85.5825C395.836 85.1138 395.128 84.8742 394.227 84.8742C393.269 84.8742 392.482 85.1138 391.873 85.5825C391.274 86.0408 390.977 86.6762 390.977 87.4783C390.977 88.2856 391.352 88.9575 392.102 89.4992C392.852 90.0408 394.008 90.6762 395.581 91.395C397.149 92.119 398.435 92.7856 399.435 93.395C400.435 94.0096 401.295 94.8273 402.019 95.8533C402.737 96.8846 403.102 98.145 403.102 99.645C403.102 101.301 402.654 102.78 401.769 104.082C400.894 105.39 399.628 106.411 397.977 107.145C396.321 107.869 394.394 108.228 392.185 108.228Z" fill="white"/>
<path d="M414.972 85.27L413.972 91.1242H423.139L422.222 96.27H413.055L411.951 102.562H422.305L421.347 107.958H404.139L409.097 79.8742H426.305L425.347 85.27H414.972Z" fill="white"/>
<path d="M153.816 122.065C154.983 122.065 155.863 122.33 156.462 122.856C157.071 123.387 157.378 124.075 157.378 124.919C157.378 125.158 157.358 125.387 157.316 125.606C157.191 126.346 156.863 127.012 156.337 127.606C155.821 128.19 155.128 128.601 154.253 128.835L156.066 133.294H152.962L151.378 129.044H150.733L149.983 133.294H147.233L149.233 122.065H153.816ZM154.524 125.71C154.535 125.544 154.545 125.434 154.545 125.377C154.545 125.033 154.431 124.768 154.212 124.585C154.003 124.393 153.681 124.294 153.253 124.294H151.566L151.066 127.127H152.753C153.264 127.127 153.67 127.002 153.962 126.752C154.253 126.502 154.441 126.158 154.524 125.71Z" fill="white"/>
<path d="M164.739 124.231L164.322 126.565H167.989L167.635 128.627H163.968L163.51 131.127H167.656L167.281 133.294H160.385L162.385 122.065H169.26L168.864 124.231H164.739ZM168.031 119.815L163.864 121.419L164.197 119.544L168.385 117.69L168.031 119.815Z" fill="white"/>
<path d="M181.677 125.669C181.563 126.325 181.308 126.919 180.907 127.46C180.516 128.002 179.979 128.44 179.302 128.773C178.636 129.096 177.844 129.252 176.927 129.252H175.219L174.511 133.294H171.761L173.761 122.065H178.177C179.354 122.065 180.245 122.325 180.844 122.835C181.438 123.351 181.74 124.054 181.74 124.94C181.74 125.205 181.719 125.45 181.677 125.669ZM177.073 127.127C178.099 127.127 178.703 126.643 178.886 125.669C178.912 125.502 178.927 125.387 178.927 125.315C178.927 124.971 178.813 124.705 178.594 124.523C178.37 124.33 178.037 124.231 177.594 124.231H176.115L175.615 127.127H177.073Z" fill="white"/>
<path d="M191.819 131.315H187.631L186.611 133.294H183.736L189.777 122.065H192.944L195.027 133.294H192.131L191.819 131.315ZM191.506 129.231L190.84 125.065L188.694 129.231H191.506Z" fill="white"/>
<path d="M205.56 122.065C206.727 122.065 207.607 122.33 208.206 122.856C208.815 123.387 209.123 124.075 209.123 124.919C209.123 125.158 209.102 125.387 209.06 125.606C208.935 126.346 208.607 127.012 208.081 127.606C207.565 128.19 206.873 128.601 205.998 128.835L207.81 133.294H204.706L203.123 129.044H202.477L201.727 133.294H198.977L200.977 122.065H205.56ZM206.268 125.71C206.279 125.544 206.289 125.434 206.289 125.377C206.289 125.033 206.175 124.768 205.956 124.585C205.748 124.393 205.425 124.294 204.998 124.294H203.31L202.81 127.127H204.498C205.008 127.127 205.414 127.002 205.706 126.752C205.998 126.502 206.185 126.158 206.268 125.71Z" fill="white"/>
<path d="M219.483 131.315H215.295L214.275 133.294H211.4L217.441 122.065H220.608L222.691 133.294H219.795L219.483 131.315ZM219.17 129.231L218.504 125.065L216.358 129.231H219.17Z" fill="white"/>
<path d="M236.724 122.065L236.349 124.231H233.349L231.745 133.294H229.016L230.62 124.231H227.641L228.016 122.065H236.724Z" fill="white"/>
<path d="M243.546 122.065L241.567 133.294H238.817L240.817 122.065H243.546Z" fill="white"/>
<path d="M251.611 133.398C250.663 133.398 249.83 133.205 249.111 132.815C248.387 132.429 247.825 131.877 247.423 131.169C247.033 130.45 246.84 129.622 246.84 128.69C246.84 127.372 247.121 126.2 247.694 125.169C248.262 124.143 249.048 123.346 250.048 122.773C251.059 122.19 252.205 121.898 253.486 121.898C254.444 121.898 255.283 122.096 256.007 122.481C256.726 122.872 257.283 123.419 257.673 124.127C258.075 124.835 258.278 125.648 258.278 126.565C258.278 127.887 257.991 129.065 257.423 130.106C256.866 131.148 256.08 131.96 255.069 132.544C254.054 133.117 252.903 133.398 251.611 133.398ZM252.028 130.877C252.736 130.877 253.351 130.7 253.882 130.335C254.408 129.976 254.819 129.492 255.111 128.877C255.413 128.252 255.569 127.585 255.569 126.877C255.569 126.117 255.351 125.518 254.923 125.085C254.491 124.643 253.892 124.419 253.132 124.419C252.423 124.419 251.798 124.601 251.257 124.96C250.726 125.325 250.309 125.809 250.007 126.419C249.715 127.018 249.569 127.679 249.569 128.398C249.569 129.164 249.783 129.768 250.215 130.21C250.642 130.658 251.246 130.877 252.028 130.877Z" fill="white"/>
<path d="M271.615 133.294H268.865L265.532 126.356L264.303 133.294H261.553L263.553 122.065H266.282L269.636 129.023L270.865 122.065H273.595L271.615 133.294Z" fill="white"/>
<path d="M280.784 133.398C279.56 133.398 278.565 133.137 277.805 132.606C277.039 132.08 276.659 131.33 276.659 130.356C276.659 130.273 276.669 130.137 276.701 129.94H279.555C279.513 130.346 279.602 130.664 279.826 130.898C280.06 131.137 280.409 131.252 280.867 131.252C281.284 131.252 281.607 131.164 281.847 130.981C282.081 130.804 282.201 130.544 282.201 130.21C282.201 129.867 282.044 129.585 281.742 129.377C281.435 129.158 280.961 128.914 280.326 128.648C279.711 128.398 279.211 128.164 278.826 127.94C278.435 127.705 278.097 127.393 277.805 127.002C277.513 126.601 277.367 126.101 277.367 125.502C277.352 124.768 277.534 124.127 277.909 123.585C278.284 123.044 278.794 122.627 279.451 122.335C280.117 122.044 280.878 121.898 281.742 121.898C282.503 121.898 283.185 122.023 283.784 122.273C284.378 122.512 284.847 122.856 285.18 123.315C285.513 123.762 285.68 124.294 285.68 124.919C285.68 125.075 285.669 125.184 285.659 125.252H282.742C282.753 125.21 282.763 125.148 282.763 125.065C282.763 124.773 282.659 124.539 282.451 124.356C282.242 124.164 281.956 124.065 281.597 124.065C281.206 124.065 280.893 124.164 280.659 124.356C280.419 124.539 280.305 124.789 280.305 125.106C280.305 125.429 280.451 125.7 280.742 125.919C281.044 126.127 281.513 126.377 282.138 126.669C282.763 126.96 283.274 127.231 283.68 127.481C284.081 127.721 284.419 128.044 284.701 128.46C284.992 128.867 285.138 129.367 285.138 129.96C285.138 130.627 284.961 131.226 284.617 131.752C284.268 132.268 283.763 132.669 283.097 132.96C282.43 133.252 281.659 133.398 280.784 133.398Z" fill="white"/>
<path d="M302.747 131.315H298.56L297.539 133.294H294.664L300.705 122.065H303.872L305.955 133.294H303.06L302.747 131.315ZM302.435 129.231L301.768 125.065L299.622 129.231H302.435ZM304.622 119.544L304.268 121.419L300.726 119.815L301.08 117.69L304.622 119.544Z" fill="white"/>
<path d="M322.529 122.065C323.555 122.065 324.446 122.252 325.196 122.627C325.946 122.992 326.519 123.502 326.925 124.169C327.326 124.835 327.529 125.617 327.529 126.502C327.529 126.825 327.493 127.21 327.425 127.669C327.227 128.783 326.811 129.762 326.175 130.606C325.534 131.455 324.727 132.117 323.758 132.585C322.784 133.059 321.706 133.294 320.529 133.294H316.321L318.321 122.065H322.529ZM320.779 130.96C321.805 130.96 322.659 130.679 323.342 130.106C324.034 129.523 324.467 128.71 324.633 127.669C324.686 127.351 324.717 127.085 324.717 126.877C324.717 126.085 324.472 125.476 323.988 125.044C323.514 124.617 322.831 124.398 321.946 124.398H320.633L319.488 130.96H320.779Z" fill="white"/>
<path d="M336.027 133.398C335.079 133.398 334.246 133.205 333.527 132.815C332.803 132.429 332.241 131.877 331.84 131.169C331.449 130.45 331.256 129.622 331.256 128.69C331.256 127.372 331.538 126.2 332.111 125.169C332.678 124.143 333.465 123.346 334.465 122.773C335.475 122.19 336.621 121.898 337.902 121.898C338.861 121.898 339.699 122.096 340.423 122.481C341.142 122.872 341.699 123.419 342.09 124.127C342.491 124.835 342.694 125.648 342.694 126.565C342.694 127.887 342.407 129.065 341.84 130.106C341.282 131.148 340.496 131.96 339.486 132.544C338.47 133.117 337.319 133.398 336.027 133.398ZM336.444 130.877C337.152 130.877 337.767 130.7 338.298 130.335C338.824 129.976 339.236 129.492 339.527 128.877C339.829 128.252 339.986 127.585 339.986 126.877C339.986 126.117 339.767 125.518 339.34 125.085C338.907 124.643 338.308 124.419 337.548 124.419C336.84 124.419 336.215 124.601 335.673 124.96C335.142 125.325 334.725 125.809 334.423 126.419C334.131 127.018 333.986 127.679 333.986 128.398C333.986 129.164 334.199 129.768 334.631 130.21C335.058 130.658 335.663 130.877 336.444 130.877Z" fill="white"/>
<path d="M360.677 122.065L358.698 133.294H355.969L357.156 126.565L353.448 133.294H351.24L349.906 126.523L348.719 133.294H345.969L347.969 122.065H351.198L352.99 129.835L357.469 122.065H360.677Z" fill="white"/>
<path d="M368.106 122.065L366.127 133.294H363.377L365.377 122.065H368.106Z" fill="white"/>
<path d="M371.38 127.669C371.557 126.559 371.968 125.575 372.609 124.71C373.244 123.835 374.031 123.158 374.963 122.669C375.906 122.184 376.921 121.94 378.005 121.94C379.338 121.94 380.411 122.294 381.234 123.002C382.067 123.7 382.536 124.658 382.65 125.877H379.65C379.51 125.419 379.255 125.075 378.88 124.835C378.515 124.585 378.067 124.46 377.525 124.46C376.692 124.46 375.963 124.752 375.338 125.335C374.713 125.919 374.317 126.7 374.15 127.669C374.093 127.96 374.067 128.221 374.067 128.44C374.067 129.19 374.275 129.789 374.692 130.231C375.109 130.664 375.676 130.877 376.4 130.877C376.926 130.877 377.411 130.762 377.859 130.523C378.317 130.273 378.702 129.919 379.025 129.46H382.025C381.494 130.669 380.692 131.627 379.609 132.335C378.536 133.033 377.338 133.377 376.005 133.377C375.031 133.377 374.182 133.19 373.463 132.815C372.755 132.44 372.202 131.914 371.817 131.231C371.442 130.554 371.255 129.752 371.255 128.835C371.255 128.434 371.296 128.044 371.38 127.669Z" fill="white"/>
<path d="M390.458 122.065L388.479 133.294H385.729L387.729 122.065H390.458Z" fill="white"/>
<path d="M396.273 131.21H399.857L399.502 133.294H393.169L395.169 122.065H397.898L396.273 131.21Z" fill="white"/>
<path d="M407.875 124.231L407.459 126.565H411.125L410.771 128.627H407.104L406.646 131.127H410.792L410.417 133.294H403.521L405.521 122.065H412.396L412 124.231H407.875Z" fill="white"/>
</g>
<defs>
<clipPath id="clip0_21_5">
<rect width="500" height="180" fill="white"/>
</clipPath>
</defs>
</svg>
