<svg xmlns="http://www.w3.org/2000/svg" xmlns:xlink="http://www.w3.org/1999/xlink" width="500" zoomAndPan="magnify" viewBox="0 0 375 374.999991" height="500" preserveAspectRatio="xMidYMid meet" version="1.0"><defs><g/><clipPath id="00d4038154"><path d="M 5.199219 106.410156 L 370 106.410156 L 370 254.199219 L 5.199219 254.199219 Z M 5.199219 106.410156 " clip-rule="nonzero"/></clipPath><clipPath id="ffb446c50b"><path d="M 187.34375 106.410156 C 86.746094 106.410156 5.199219 139.492188 5.199219 180.304688 C 5.199219 221.117188 86.746094 254.199219 187.34375 254.199219 C 287.9375 254.199219 369.488281 221.117188 369.488281 180.304688 C 369.488281 139.492188 287.9375 106.410156 187.34375 106.410156 Z M 187.34375 106.410156 " clip-rule="nonzero"/></clipPath><clipPath id="0de3ec2b9e"><path d="M 5.5 108.480469 L 232 108.480469 L 232 248 L 5.5 248 Z M 5.5 108.480469 " clip-rule="nonzero"/></clipPath><clipPath id="0ab66e035c"><path d="M 14 113 L 312.492188 113 L 312.492188 243 L 14 243 Z M 14 113 " clip-rule="nonzero"/></clipPath></defs><rect x="-37.5" width="450" fill="#ffffff" y="-37.499999" height="449.999989" fill-opacity="1"/><rect x="-37.5" width="450" fill="#ffffff" y="-37.499999" height="449.999989" fill-opacity="1"/><g clip-path="url(#00d4038154)"><g clip-path="url(#ffb446c50b)"><path fill="#000000" d="M 5.199219 106.410156 L 369.480469 106.410156 L 369.480469 254.199219 L 5.199219 254.199219 Z M 5.199219 106.410156 " fill-opacity="1" fill-rule="nonzero"/></g></g><path fill="#ffffff" d="M 304.871094 147.96875 C 304.871094 147.96875 303.015625 153.4375 307.65625 161.589844 C 307.65625 161.589844 308.585938 163.035156 301.980469 160.144531 C 295.378906 157.257812 281.34375 153.027344 209.839844 158.804688 C 209.839844 158.804688 267.933594 148.28125 304.871094 147.96875 Z M 304.871094 147.96875 " fill-opacity="1" fill-rule="nonzero"/><path fill="#dbad07" d="M 260.089844 147.96875 C 260.089844 147.96875 214.742188 156.484375 162.507812 157.410156 C 110.269531 158.335938 100.15625 163.136719 93.863281 165.820312 L 57.957031 166.75 C 57.957031 166.75 81.390625 151.703125 148.1875 151.527344 C 207.570312 151.375 243.375 148.742188 260.089844 147.96875 Z M 260.089844 147.96875 " fill-opacity="1" fill-rule="nonzero"/><path fill="#dbad07" d="M 298.320312 144.253906 C 298.320312 144.253906 279.128906 148.589844 238.730469 136.671875 C 238.730469 136.671875 190.289062 119.183594 155.773438 149.519531 C 155.773438 149.519531 143.472656 149.207031 135.730469 149.519531 C 135.730469 149.519531 178.808594 118.054688 225.65625 128.160156 C 256.273438 134.761719 265.550781 142.964844 298.320312 144.253906 Z M 298.320312 144.253906 " fill-opacity="1" fill-rule="nonzero"/><g clip-path="url(#0de3ec2b9e)"><path fill="#dbad07" d="M 179.855469 108.503906 C 197.890625 108.503906 215.285156 109.613281 231.652344 111.679688 C 217.242188 110.113281 202.097656 109.277344 186.472656 109.277344 C 90.011719 109.277344 11.8125 141.082031 11.8125 180.316406 C 11.8125 211.585938 61.480469 238.136719 130.476562 247.628906 C 58.0625 238.96875 5.195312 211.746094 5.195312 179.503906 C 5.195312 140.292969 83.390625 108.503906 179.855469 108.503906 Z M 179.855469 108.503906 " fill-opacity="1" fill-rule="nonzero"/></g><g clip-path="url(#0ab66e035c)"><path fill="#ffffff" d="M 189.59375 113.070312 C 237.671875 113.070312 281.214844 120.578125 312.800781 132.730469 C 282.773438 123.625 244.632812 118.175781 203.117188 118.175781 C 106.324219 118.175781 27.855469 147.800781 27.855469 184.339844 C 27.855469 209.21875 64.230469 230.890625 117.996094 242.191406 C 57.234375 231.621094 14.929688 208.015625 14.929688 180.585938 C 14.929688 143.300781 93.128906 113.070312 189.59375 113.070312 Z M 189.59375 113.070312 " fill-opacity="1" fill-rule="nonzero"/></g><g fill="#ffffff" fill-opacity="1"><g transform="translate(49.353567, 194.099373)"><g><path d="M 16.609375 -4.375 L 7.34375 -4.375 L 5.09375 0 L -1.234375 0 L 12.125 -24.796875 L 19.109375 -24.796875 L 23.703125 0 L 17.3125 0 Z M 15.890625 -8.96875 L 14.453125 -18.15625 L 9.71875 -8.96875 Z M 15.890625 -8.96875 "/></g></g></g><g fill="#ffffff" fill-opacity="1"><g transform="translate(73.83111, 194.099373)"><g><path d="M 14.0625 -24.796875 C 16.34375 -24.796875 18.3125 -24.390625 19.96875 -23.578125 C 21.632812 -22.765625 22.910156 -21.625 23.796875 -20.15625 C 24.679688 -18.6875 25.125 -16.960938 25.125 -14.984375 C 25.125 -14.296875 25.039062 -13.4375 24.875 -12.40625 C 24.445312 -9.976562 23.53125 -7.820312 22.125 -5.9375 C 20.726562 -4.050781 18.953125 -2.585938 16.796875 -1.546875 C 14.640625 -0.515625 12.269531 0 9.6875 0 L 0.390625 0 L 4.765625 -24.796875 Z M 10.203125 -5.15625 C 12.492188 -5.15625 14.390625 -5.789062 15.890625 -7.0625 C 17.398438 -8.332031 18.34375 -10.113281 18.71875 -12.40625 C 18.84375 -13.101562 18.90625 -13.691406 18.90625 -14.171875 C 18.90625 -15.910156 18.375 -17.253906 17.3125 -18.203125 C 16.25 -19.160156 14.738281 -19.640625 12.78125 -19.640625 L 9.890625 -19.640625 L 7.34375 -5.15625 Z M 10.203125 -5.15625 "/></g></g></g><g fill="#ffffff" fill-opacity="1"><g transform="translate(97.955447, 194.099373)"><g><path d="M 9.96875 -20.03125 L 9.078125 -14.875 L 17.171875 -14.875 L 16.359375 -10.3125 L 8.265625 -10.3125 L 7.28125 -4.765625 L 16.421875 -4.765625 L 15.578125 0 L 0.390625 0 L 4.765625 -24.796875 L 19.953125 -24.796875 L 19.109375 -20.03125 Z M 9.96875 -20.03125 "/></g></g></g><g fill="#ffffff" fill-opacity="1"><g transform="translate(115.510059, 194.099373)"><g/></g></g><g fill="#ffffff" fill-opacity="1"><g transform="translate(122.115108, 194.099373)"><g><path d="M 22.25 -16.8125 C 22.019531 -15.375 21.46875 -14.0625 20.59375 -12.875 C 19.726562 -11.6875 18.546875 -10.726562 17.046875 -10 C 15.546875 -9.269531 13.785156 -8.90625 11.765625 -8.90625 L 8.015625 -8.90625 L 6.4375 0 L 0.390625 0 L 4.765625 -24.796875 L 14.5625 -24.796875 C 17.144531 -24.796875 19.09375 -24.222656 20.40625 -23.078125 C 21.726562 -21.941406 22.390625 -20.394531 22.390625 -18.4375 C 22.390625 -17.851562 22.34375 -17.3125 22.25 -16.8125 Z M 12.125 -13.640625 C 14.382812 -13.640625 15.710938 -14.695312 16.109375 -16.8125 C 16.160156 -17.1875 16.1875 -17.457031 16.1875 -17.625 C 16.1875 -18.382812 15.941406 -18.96875 15.453125 -19.375 C 14.972656 -19.789062 14.238281 -20 13.25 -20 L 9.96875 -20 L 8.875 -13.640625 Z M 12.125 -13.640625 "/></g></g></g><g fill="#ffffff" fill-opacity="1"><g transform="translate(142.601367, 194.099373)"><g><path d="M 16.609375 -4.375 L 7.34375 -4.375 L 5.09375 0 L -1.234375 0 L 12.125 -24.796875 L 19.109375 -24.796875 L 23.703125 0 L 17.3125 0 Z M 15.890625 -8.96875 L 14.453125 -18.15625 L 9.71875 -8.96875 Z M 15.890625 -8.96875 "/></g></g></g><g fill="#ffffff" fill-opacity="1"><g transform="translate(167.078915, 194.099373)"><g><path d="M 14.90625 -24.796875 C 17.476562 -24.796875 19.429688 -24.210938 20.765625 -23.046875 C 22.109375 -21.878906 22.78125 -20.367188 22.78125 -18.515625 C 22.78125 -17.972656 22.734375 -17.46875 22.640625 -17 C 22.359375 -15.34375 21.640625 -13.867188 20.484375 -12.578125 C 19.335938 -11.285156 17.796875 -10.367188 15.859375 -9.828125 L 19.859375 0 L 13.03125 0 L 9.53125 -9.359375 L 8.09375 -9.359375 L 6.4375 0 L 0.390625 0 L 4.765625 -24.796875 Z M 16.46875 -16.75 C 16.507812 -17.125 16.53125 -17.367188 16.53125 -17.484375 C 16.53125 -18.242188 16.285156 -18.828125 15.796875 -19.234375 C 15.316406 -19.648438 14.609375 -19.859375 13.671875 -19.859375 L 9.921875 -19.859375 L 8.828125 -13.640625 L 12.578125 -13.640625 C 13.679688 -13.640625 14.554688 -13.910156 15.203125 -14.453125 C 15.859375 -14.992188 16.28125 -15.757812 16.46875 -16.75 Z M 16.46875 -16.75 "/></g></g></g><g fill="#ffffff" fill-opacity="1"><g transform="translate(188.554169, 194.099373)"><g><path d="M 9.96875 -20.03125 L 9.078125 -14.875 L 17.171875 -14.875 L 16.359375 -10.3125 L 8.265625 -10.3125 L 7.28125 -4.765625 L 16.421875 -4.765625 L 15.578125 0 L 0.390625 0 L 4.765625 -24.796875 L 19.953125 -24.796875 L 19.109375 -20.03125 Z M 9.96875 -20.03125 "/></g></g></g><g fill="#ffffff" fill-opacity="1"><g transform="translate(206.108784, 194.099373)"><g><path d="M 18.234375 -14.90625 L 17.3125 -9.890625 L 1.765625 -9.890625 L 2.6875 -14.90625 Z M 18.234375 -14.90625 "/></g></g></g><g fill="#ffffff" fill-opacity="1"><g transform="translate(225.040923, 194.099373)"><g><path d="M 22.859375 -18.375 C 22.597656 -16.914062 21.992188 -15.703125 21.046875 -14.734375 C 20.109375 -13.765625 18.984375 -13.09375 17.671875 -12.71875 C 18.847656 -12.457031 19.773438 -11.878906 20.453125 -10.984375 C 21.140625 -10.085938 21.484375 -9.039062 21.484375 -7.84375 C 21.484375 -7.46875 21.445312 -7.101562 21.375 -6.75 C 21.019531 -4.675781 20.003906 -3.03125 18.328125 -1.8125 C 16.660156 -0.601562 14.53125 0 11.9375 0 L 0.390625 0 L 4.765625 -24.796875 L 15.9375 -24.796875 C 18.175781 -24.796875 19.90625 -24.335938 21.125 -23.421875 C 22.351562 -22.503906 22.96875 -21.234375 22.96875 -19.609375 C 22.96875 -19.203125 22.929688 -18.789062 22.859375 -18.375 Z M 12.96875 -14.734375 C 13.976562 -14.734375 14.789062 -14.957031 15.40625 -15.40625 C 16.019531 -15.851562 16.394531 -16.5 16.53125 -17.34375 C 16.550781 -17.488281 16.5625 -17.675781 16.5625 -17.90625 C 16.5625 -18.59375 16.335938 -19.117188 15.890625 -19.484375 C 15.441406 -19.847656 14.785156 -20.03125 13.921875 -20.03125 L 9.96875 -20.03125 L 9.046875 -14.734375 Z M 15.375 -7.5625 C 15.414062 -7.84375 15.4375 -8.054688 15.4375 -8.203125 C 15.4375 -8.878906 15.1875 -9.410156 14.6875 -9.796875 C 14.195312 -10.191406 13.515625 -10.390625 12.640625 -10.390625 L 8.265625 -10.390625 L 7.28125 -4.796875 L 11.734375 -4.796875 C 12.765625 -4.796875 13.585938 -5.03125 14.203125 -5.5 C 14.816406 -5.976562 15.207031 -6.664062 15.375 -7.5625 Z M 15.375 -7.5625 "/></g></g></g><g fill="#ffffff" fill-opacity="1"><g transform="translate(246.763424, 194.099373)"><g><path d="M 14.90625 -24.796875 C 17.476562 -24.796875 19.429688 -24.210938 20.765625 -23.046875 C 22.109375 -21.878906 22.78125 -20.367188 22.78125 -18.515625 C 22.78125 -17.972656 22.734375 -17.46875 22.640625 -17 C 22.359375 -15.34375 21.640625 -13.867188 20.484375 -12.578125 C 19.335938 -11.285156 17.796875 -10.367188 15.859375 -9.828125 L 19.859375 0 L 13.03125 0 L 9.53125 -9.359375 L 8.09375 -9.359375 L 6.4375 0 L 0.390625 0 L 4.765625 -24.796875 Z M 16.46875 -16.75 C 16.507812 -17.125 16.53125 -17.367188 16.53125 -17.484375 C 16.53125 -18.242188 16.285156 -18.828125 15.796875 -19.234375 C 15.316406 -19.648438 14.609375 -19.859375 13.671875 -19.859375 L 9.921875 -19.859375 L 8.828125 -13.640625 L 12.578125 -13.640625 C 13.679688 -13.640625 14.554688 -13.910156 15.203125 -14.453125 C 15.859375 -14.992188 16.28125 -15.757812 16.46875 -16.75 Z M 16.46875 -16.75 "/></g></g></g><g fill="#ffffff" fill-opacity="1"><g transform="translate(268.238678, 194.099373)"><g><path d="M 10.8125 -24.796875 L 6.4375 0 L 0.390625 0 L 4.765625 -24.796875 Z M 10.8125 -24.796875 "/></g></g></g><g fill="#ffffff" fill-opacity="1"><g transform="translate(277.104274, 194.099373)"><g><path d="M 10.25 0.25 C 7.5625 0.25 5.375 -0.332031 3.6875 -1.5 C 2.007812 -2.664062 1.171875 -4.320312 1.171875 -6.46875 C 1.171875 -6.675781 1.191406 -6.992188 1.234375 -7.421875 L 7.53125 -7.421875 C 7.457031 -6.523438 7.664062 -5.816406 8.15625 -5.296875 C 8.65625 -4.773438 9.410156 -4.515625 10.421875 -4.515625 C 11.335938 -4.515625 12.0625 -4.710938 12.59375 -5.109375 C 13.125 -5.515625 13.390625 -6.082031 13.390625 -6.8125 C 13.390625 -7.570312 13.050781 -8.1875 12.375 -8.65625 C 11.707031 -9.125 10.664062 -9.65625 9.25 -10.25 C 7.882812 -10.8125 6.769531 -11.34375 5.90625 -11.84375 C 5.050781 -12.351562 4.304688 -13.039062 3.671875 -13.90625 C 3.035156 -14.78125 2.71875 -15.878906 2.71875 -17.203125 C 2.695312 -18.828125 3.097656 -20.238281 3.921875 -21.4375 C 4.742188 -22.644531 5.882812 -23.566406 7.34375 -24.203125 C 8.800781 -24.835938 10.472656 -25.15625 12.359375 -25.15625 C 14.054688 -25.15625 15.5625 -24.890625 16.875 -24.359375 C 18.195312 -23.828125 19.222656 -23.0625 19.953125 -22.0625 C 20.691406 -21.0625 21.0625 -19.878906 21.0625 -18.515625 C 21.0625 -18.160156 21.046875 -17.898438 21.015625 -17.734375 L 14.59375 -17.734375 C 14.613281 -17.828125 14.625 -17.96875 14.625 -18.15625 C 14.625 -18.8125 14.394531 -19.347656 13.9375 -19.765625 C 13.476562 -20.179688 12.847656 -20.390625 12.046875 -20.390625 C 11.203125 -20.390625 10.515625 -20.179688 9.984375 -19.765625 C 9.453125 -19.347656 9.1875 -18.789062 9.1875 -18.09375 C 9.1875 -17.382812 9.515625 -16.785156 10.171875 -16.296875 C 10.828125 -15.816406 11.851562 -15.257812 13.25 -14.625 C 14.632812 -13.988281 15.769531 -13.398438 16.65625 -12.859375 C 17.539062 -12.316406 18.300781 -11.59375 18.9375 -10.6875 C 19.570312 -9.78125 19.890625 -8.664062 19.890625 -7.34375 C 19.890625 -5.882812 19.5 -4.578125 18.71875 -3.421875 C 17.945312 -2.273438 16.828125 -1.375 15.359375 -0.71875 C 13.898438 -0.0703125 12.195312 0.25 10.25 0.25 Z M 10.25 0.25 "/></g></g></g><g fill="#ffffff" fill-opacity="1"><g transform="translate(297.519882, 194.099373)"><g><path d="M 9.96875 -20.03125 L 9.078125 -14.875 L 17.171875 -14.875 L 16.359375 -10.3125 L 8.265625 -10.3125 L 7.28125 -4.765625 L 16.421875 -4.765625 L 15.578125 0 L 0.390625 0 L 4.765625 -24.796875 L 19.953125 -24.796875 L 19.109375 -20.03125 Z M 9.96875 -20.03125 "/></g></g></g><g fill="#ffffff" fill-opacity="1"><g transform="translate(70.903615, 216.47201)"><g><path d="M 5.953125 -9.921875 C 6.984375 -9.921875 7.765625 -9.6875 8.296875 -9.21875 C 8.835938 -8.75 9.109375 -8.144531 9.109375 -7.40625 C 9.109375 -7.1875 9.085938 -6.984375 9.046875 -6.796875 C 8.941406 -6.140625 8.65625 -5.550781 8.1875 -5.03125 C 7.726562 -4.507812 7.113281 -4.140625 6.34375 -3.921875 L 7.9375 0 L 5.21875 0 L 3.8125 -3.75 L 3.234375 -3.75 L 2.578125 0 L 0.15625 0 L 1.90625 -9.921875 Z M 6.578125 -6.6875 C 6.597656 -6.84375 6.609375 -6.941406 6.609375 -6.984375 C 6.609375 -7.285156 6.507812 -7.519531 6.3125 -7.6875 C 6.125 -7.851562 5.84375 -7.9375 5.46875 -7.9375 L 3.96875 -7.9375 L 3.53125 -5.453125 L 5.03125 -5.453125 C 5.46875 -5.453125 5.816406 -5.5625 6.078125 -5.78125 C 6.335938 -6 6.503906 -6.300781 6.578125 -6.6875 Z M 6.578125 -6.6875 "/></g></g></g><g fill="#ffffff" fill-opacity="1"><g transform="translate(82.517237, 216.47201)"><g><path d="M 3.984375 -8.015625 L 3.625 -5.953125 L 6.859375 -5.953125 L 6.546875 -4.125 L 3.3125 -4.125 L 2.90625 -1.90625 L 6.5625 -1.90625 L 6.234375 0 L 0.15625 0 L 1.90625 -9.921875 L 7.984375 -9.921875 L 7.640625 -8.015625 Z M 6.890625 -11.90625 L 3.21875 -10.484375 L 3.515625 -12.140625 L 7.21875 -13.78125 Z M 6.890625 -11.90625 "/></g></g></g><g fill="#ffffff" fill-opacity="1"><g transform="translate(92.562598, 216.47201)"><g><path d="M 8.90625 -6.71875 C 8.800781 -6.144531 8.578125 -5.617188 8.234375 -5.140625 C 7.890625 -4.671875 7.414062 -4.289062 6.8125 -4 C 6.21875 -3.707031 5.515625 -3.5625 4.703125 -3.5625 L 3.203125 -3.5625 L 2.578125 0 L 0.15625 0 L 1.90625 -9.921875 L 5.8125 -9.921875 C 6.851562 -9.921875 7.632812 -9.691406 8.15625 -9.234375 C 8.6875 -8.773438 8.953125 -8.15625 8.953125 -7.375 C 8.953125 -7.132812 8.9375 -6.914062 8.90625 -6.71875 Z M 4.84375 -5.453125 C 5.75 -5.453125 6.28125 -5.875 6.4375 -6.71875 C 6.457031 -6.875 6.46875 -6.984375 6.46875 -7.046875 C 6.46875 -7.347656 6.367188 -7.582031 6.171875 -7.75 C 5.984375 -7.914062 5.691406 -8 5.296875 -8 L 3.984375 -8 L 3.546875 -5.453125 Z M 4.84375 -5.453125 "/></g></g></g><g fill="#ffffff" fill-opacity="1"><g transform="translate(103.780624, 216.47201)"><g><path d="M 6.640625 -1.75 L 2.9375 -1.75 L 2.03125 0 L -0.5 0 L 4.84375 -9.921875 L 7.640625 -9.921875 L 9.484375 0 L 6.921875 0 Z M 6.359375 -3.59375 L 5.78125 -7.265625 L 3.890625 -3.59375 Z M 6.359375 -3.59375 "/></g></g></g><g fill="#ffffff" fill-opacity="1"><g transform="translate(116.595167, 216.47201)"><g><path d="M 5.953125 -9.921875 C 6.984375 -9.921875 7.765625 -9.6875 8.296875 -9.21875 C 8.835938 -8.75 9.109375 -8.144531 9.109375 -7.40625 C 9.109375 -7.1875 9.085938 -6.984375 9.046875 -6.796875 C 8.941406 -6.140625 8.65625 -5.550781 8.1875 -5.03125 C 7.726562 -4.507812 7.113281 -4.140625 6.34375 -3.921875 L 7.9375 0 L 5.21875 0 L 3.8125 -3.75 L 3.234375 -3.75 L 2.578125 0 L 0.15625 0 L 1.90625 -9.921875 Z M 6.578125 -6.6875 C 6.597656 -6.84375 6.609375 -6.941406 6.609375 -6.984375 C 6.609375 -7.285156 6.507812 -7.519531 6.3125 -7.6875 C 6.125 -7.851562 5.84375 -7.9375 5.46875 -7.9375 L 3.96875 -7.9375 L 3.53125 -5.453125 L 5.03125 -5.453125 C 5.46875 -5.453125 5.816406 -5.5625 6.078125 -5.78125 C 6.335938 -6 6.503906 -6.300781 6.578125 -6.6875 Z M 6.578125 -6.6875 "/></g></g></g><g fill="#ffffff" fill-opacity="1"><g transform="translate(128.208787, 216.47201)"><g><path d="M 6.640625 -1.75 L 2.9375 -1.75 L 2.03125 0 L -0.5 0 L 4.84375 -9.921875 L 7.640625 -9.921875 L 9.484375 0 L 6.921875 0 Z M 6.359375 -3.59375 L 5.78125 -7.265625 L 3.890625 -3.59375 Z M 6.359375 -3.59375 "/></g></g></g><g fill="#ffffff" fill-opacity="1"><g transform="translate(141.02333, 216.47201)"><g><path d="M 9.046875 -9.921875 L 8.71875 -8.015625 L 6.078125 -8.015625 L 4.65625 0 L 2.25 0 L 3.65625 -8.015625 L 1.03125 -8.015625 L 1.375 -9.921875 Z M 9.046875 -9.921875 "/></g></g></g><g fill="#ffffff" fill-opacity="1"><g transform="translate(151.775118, 216.47201)"><g><path d="M 4.328125 -9.921875 L 2.578125 0 L 0.15625 0 L 1.90625 -9.921875 Z M 4.328125 -9.921875 "/></g></g></g><g fill="#ffffff" fill-opacity="1"><g transform="translate(158.344873, 216.47201)"><g><path d="M 4.875 0.09375 C 4.03125 0.09375 3.289062 -0.078125 2.65625 -0.421875 C 2.019531 -0.773438 1.523438 -1.265625 1.171875 -1.890625 C 0.828125 -2.523438 0.65625 -3.25 0.65625 -4.0625 C 0.65625 -5.226562 0.90625 -6.265625 1.40625 -7.171875 C 1.90625 -8.078125 2.597656 -8.785156 3.484375 -9.296875 C 4.378906 -9.804688 5.394531 -10.0625 6.53125 -10.0625 C 7.375 -10.0625 8.113281 -9.890625 8.75 -9.546875 C 9.394531 -9.203125 9.890625 -8.710938 10.234375 -8.078125 C 10.585938 -7.453125 10.765625 -6.738281 10.765625 -5.9375 C 10.765625 -4.769531 10.515625 -3.726562 10.015625 -2.8125 C 9.515625 -1.894531 8.816406 -1.179688 7.921875 -0.671875 C 7.023438 -0.160156 6.007812 0.09375 4.875 0.09375 Z M 5.234375 -2.140625 C 5.859375 -2.140625 6.40625 -2.296875 6.875 -2.609375 C 7.34375 -2.929688 7.707031 -3.363281 7.96875 -3.90625 C 8.226562 -4.445312 8.359375 -5.035156 8.359375 -5.671875 C 8.359375 -6.347656 8.171875 -6.878906 7.796875 -7.265625 C 7.421875 -7.648438 6.894531 -7.84375 6.21875 -7.84375 C 5.59375 -7.84375 5.039062 -7.679688 4.5625 -7.359375 C 4.09375 -7.035156 3.726562 -6.609375 3.46875 -6.078125 C 3.207031 -5.546875 3.078125 -4.960938 3.078125 -4.328125 C 3.078125 -3.648438 3.265625 -3.113281 3.640625 -2.71875 C 4.015625 -2.332031 4.546875 -2.140625 5.234375 -2.140625 Z M 5.234375 -2.140625 "/></g></g></g><g fill="#ffffff" fill-opacity="1"><g transform="translate(171.851708, 216.47201)"><g><path d="M 9.03125 0 L 6.609375 0 L 3.65625 -6.109375 L 2.578125 0 L 0.15625 0 L 1.90625 -9.921875 L 4.328125 -9.921875 L 7.28125 -3.765625 L 8.359375 -9.921875 L 10.78125 -9.921875 Z M 9.03125 0 "/></g></g></g><g fill="#ffffff" fill-opacity="1"><g transform="translate(184.878177, 216.47201)"><g><path d="M 4.09375 0.09375 C 3.019531 0.09375 2.144531 -0.132812 1.46875 -0.59375 C 0.800781 -1.0625 0.46875 -1.722656 0.46875 -2.578125 C 0.46875 -2.671875 0.476562 -2.800781 0.5 -2.96875 L 3.015625 -2.96875 C 2.984375 -2.601562 3.066406 -2.316406 3.265625 -2.109375 C 3.460938 -1.910156 3.765625 -1.8125 4.171875 -1.8125 C 4.535156 -1.8125 4.820312 -1.890625 5.03125 -2.046875 C 5.25 -2.203125 5.359375 -2.425781 5.359375 -2.71875 C 5.359375 -3.019531 5.222656 -3.265625 4.953125 -3.453125 C 4.679688 -3.648438 4.265625 -3.863281 3.703125 -4.09375 C 3.148438 -4.320312 2.703125 -4.535156 2.359375 -4.734375 C 2.015625 -4.941406 1.71875 -5.21875 1.46875 -5.5625 C 1.21875 -5.914062 1.09375 -6.351562 1.09375 -6.875 C 1.082031 -7.53125 1.238281 -8.097656 1.5625 -8.578125 C 1.894531 -9.054688 2.351562 -9.421875 2.9375 -9.671875 C 3.519531 -9.929688 4.1875 -10.0625 4.9375 -10.0625 C 5.613281 -10.0625 6.21875 -9.953125 6.75 -9.734375 C 7.28125 -9.523438 7.691406 -9.21875 7.984375 -8.8125 C 8.273438 -8.414062 8.421875 -7.945312 8.421875 -7.40625 C 8.421875 -7.257812 8.414062 -7.15625 8.40625 -7.09375 L 5.828125 -7.09375 C 5.835938 -7.125 5.84375 -7.179688 5.84375 -7.265625 C 5.84375 -7.523438 5.75 -7.738281 5.5625 -7.90625 C 5.382812 -8.070312 5.132812 -8.15625 4.8125 -8.15625 C 4.476562 -8.15625 4.203125 -8.070312 3.984375 -7.90625 C 3.773438 -7.738281 3.671875 -7.515625 3.671875 -7.234375 C 3.671875 -6.953125 3.800781 -6.710938 4.0625 -6.515625 C 4.332031 -6.328125 4.742188 -6.101562 5.296875 -5.84375 C 5.847656 -5.59375 6.300781 -5.359375 6.65625 -5.140625 C 7.007812 -4.921875 7.3125 -4.628906 7.5625 -4.265625 C 7.820312 -3.910156 7.953125 -3.46875 7.953125 -2.9375 C 7.953125 -2.351562 7.796875 -1.828125 7.484375 -1.359375 C 7.171875 -0.898438 6.722656 -0.539062 6.140625 -0.28125 C 5.554688 -0.03125 4.875 0.09375 4.09375 0.09375 Z M 4.09375 0.09375 "/></g></g></g><g fill="#ffffff" fill-opacity="1"><g transform="translate(196.067949, 216.47201)"><g/></g></g><g fill="#ffffff" fill-opacity="1"><g transform="translate(201.733479, 216.47201)"><g><path d="M 6.640625 -1.75 L 2.9375 -1.75 L 2.03125 0 L -0.5 0 L 4.84375 -9.921875 L 7.640625 -9.921875 L 9.484375 0 L 6.921875 0 Z M 6.359375 -3.59375 L 5.78125 -7.265625 L 3.890625 -3.59375 Z M 8.296875 -12.140625 L 7.984375 -10.484375 L 4.84375 -11.90625 L 5.171875 -13.78125 Z M 8.296875 -12.140625 "/></g></g></g><g fill="#ffffff" fill-opacity="1"><g transform="translate(214.548023, 216.47201)"><g/></g></g><g fill="#ffffff" fill-opacity="1"><g transform="translate(220.213553, 216.47201)"><g><path d="M 5.625 -9.921875 C 6.53125 -9.921875 7.316406 -9.753906 7.984375 -9.421875 C 8.648438 -9.097656 9.160156 -8.640625 9.515625 -8.046875 C 9.867188 -7.460938 10.046875 -6.773438 10.046875 -5.984375 C 10.046875 -5.710938 10.007812 -5.367188 9.9375 -4.953125 C 9.769531 -3.984375 9.40625 -3.125 8.84375 -2.375 C 8.289062 -1.625 7.582031 -1.039062 6.71875 -0.625 C 5.851562 -0.207031 4.90625 0 3.875 0 L 0.15625 0 L 1.90625 -9.921875 Z M 4.078125 -2.0625 C 4.992188 -2.0625 5.753906 -2.316406 6.359375 -2.828125 C 6.960938 -3.335938 7.335938 -4.046875 7.484375 -4.953125 C 7.535156 -5.234375 7.5625 -5.472656 7.5625 -5.671875 C 7.5625 -6.359375 7.347656 -6.894531 6.921875 -7.28125 C 6.492188 -7.664062 5.890625 -7.859375 5.109375 -7.859375 L 3.953125 -7.859375 L 2.9375 -2.0625 Z M 4.078125 -2.0625 "/></g></g></g><g fill="#ffffff" fill-opacity="1"><g transform="translate(232.886809, 216.47201)"><g><path d="M 4.875 0.09375 C 4.03125 0.09375 3.289062 -0.078125 2.65625 -0.421875 C 2.019531 -0.773438 1.523438 -1.265625 1.171875 -1.890625 C 0.828125 -2.523438 0.65625 -3.25 0.65625 -4.0625 C 0.65625 -5.226562 0.90625 -6.265625 1.40625 -7.171875 C 1.90625 -8.078125 2.597656 -8.785156 3.484375 -9.296875 C 4.378906 -9.804688 5.394531 -10.0625 6.53125 -10.0625 C 7.375 -10.0625 8.113281 -9.890625 8.75 -9.546875 C 9.394531 -9.203125 9.890625 -8.710938 10.234375 -8.078125 C 10.585938 -7.453125 10.765625 -6.738281 10.765625 -5.9375 C 10.765625 -4.769531 10.515625 -3.726562 10.015625 -2.8125 C 9.515625 -1.894531 8.816406 -1.179688 7.921875 -0.671875 C 7.023438 -0.160156 6.007812 0.09375 4.875 0.09375 Z M 5.234375 -2.140625 C 5.859375 -2.140625 6.40625 -2.296875 6.875 -2.609375 C 7.34375 -2.929688 7.707031 -3.363281 7.96875 -3.90625 C 8.226562 -4.445312 8.359375 -5.035156 8.359375 -5.671875 C 8.359375 -6.347656 8.171875 -6.878906 7.796875 -7.265625 C 7.421875 -7.648438 6.894531 -7.84375 6.21875 -7.84375 C 5.59375 -7.84375 5.039062 -7.679688 4.5625 -7.359375 C 4.09375 -7.035156 3.726562 -6.609375 3.46875 -6.078125 C 3.207031 -5.546875 3.078125 -4.960938 3.078125 -4.328125 C 3.078125 -3.648438 3.265625 -3.113281 3.640625 -2.71875 C 4.015625 -2.332031 4.546875 -2.140625 5.234375 -2.140625 Z M 5.234375 -2.140625 "/></g></g></g><g fill="#ffffff" fill-opacity="1"><g transform="translate(246.393644, 216.47201)"><g><path d="M 13.140625 -9.921875 L 11.390625 0 L 8.96875 0 L 10.03125 -5.953125 L 6.75 0 L 4.796875 0 L 3.609375 -5.96875 L 2.578125 0 L 0.15625 0 L 1.90625 -9.921875 L 4.765625 -9.921875 L 6.34375 -3.046875 L 10.296875 -9.921875 Z M 13.140625 -9.921875 "/></g></g></g><g fill="#ffffff" fill-opacity="1"><g transform="translate(261.76545, 216.47201)"><g><path d="M 4.328125 -9.921875 L 2.578125 0 L 0.15625 0 L 1.90625 -9.921875 Z M 4.328125 -9.921875 "/></g></g></g><g fill="#ffffff" fill-opacity="1"><g transform="translate(268.335204, 216.47201)"><g><path d="M 0.640625 -4.96875 C 0.804688 -5.945312 1.171875 -6.820312 1.734375 -7.59375 C 2.296875 -8.363281 2.988281 -8.960938 3.8125 -9.390625 C 4.644531 -9.816406 5.539062 -10.03125 6.5 -10.03125 C 7.675781 -10.03125 8.628906 -9.71875 9.359375 -9.09375 C 10.085938 -8.476562 10.5 -7.628906 10.59375 -6.546875 L 7.9375 -6.546875 C 7.8125 -6.953125 7.585938 -7.257812 7.265625 -7.46875 C 6.941406 -7.6875 6.546875 -7.796875 6.078125 -7.796875 C 5.328125 -7.796875 4.675781 -7.535156 4.125 -7.015625 C 3.582031 -6.503906 3.238281 -5.820312 3.09375 -4.96875 C 3.039062 -4.707031 3.015625 -4.476562 3.015625 -4.28125 C 3.015625 -3.625 3.195312 -3.101562 3.5625 -2.71875 C 3.9375 -2.332031 4.441406 -2.140625 5.078125 -2.140625 C 5.546875 -2.140625 5.976562 -2.242188 6.375 -2.453125 C 6.78125 -2.671875 7.117188 -2.984375 7.390625 -3.390625 L 10.046875 -3.390625 C 9.578125 -2.316406 8.863281 -1.46875 7.90625 -0.84375 C 6.957031 -0.226562 5.894531 0.078125 4.71875 0.078125 C 3.875 0.078125 3.132812 -0.0859375 2.5 -0.421875 C 1.863281 -0.753906 1.375 -1.21875 1.03125 -1.8125 C 0.695312 -2.414062 0.53125 -3.117188 0.53125 -3.921875 C 0.53125 -4.285156 0.566406 -4.632812 0.640625 -4.96875 Z M 0.640625 -4.96875 "/></g></g></g><g fill="#ffffff" fill-opacity="1"><g transform="translate(281.502968, 216.47201)"><g><path d="M 4.328125 -9.921875 L 2.578125 0 L 0.15625 0 L 1.90625 -9.921875 Z M 4.328125 -9.921875 "/></g></g></g><g fill="#ffffff" fill-opacity="1"><g transform="translate(288.072722, 216.47201)"><g><path d="M 2.890625 -1.84375 L 6.0625 -1.84375 L 5.734375 0 L 0.15625 0 L 1.90625 -9.921875 L 4.328125 -9.921875 Z M 2.890625 -1.84375 "/></g></g></g><g fill="#ffffff" fill-opacity="1"><g transform="translate(297.213846, 216.47201)"><g><path d="M 3.984375 -8.015625 L 3.625 -5.953125 L 6.859375 -5.953125 L 6.546875 -4.125 L 3.3125 -4.125 L 2.90625 -1.90625 L 6.5625 -1.90625 L 6.234375 0 L 0.15625 0 L 1.90625 -9.921875 L 7.984375 -9.921875 L 7.640625 -8.015625 Z M 3.984375 -8.015625 "/></g></g></g></svg>